<svg data-name="Your Icons" viewBox="0 0 96 96" xmlns="http://www.w3.org/2000/svg"><path d="M59.74 50.33h-.29A3.89 3.89 0 0 0 56 48.25h-4.2v-1.38a12.78 12.78 0 0 0 8.46-8.45 12.54 12.54 0 0 0 .58-3.82V33h1a2.94 2.94 0 1 0 0-5.87h-1v-1.65a14.31 14.31 0 0 1 .52-4.1c1-3.48.76-6.24-.67-8.22-1.87-2.59-5.3-3.11-7.18-3.19a10.32 10.32 0 0 1-2.51-.5c-3.39-1.05-6-1.08-7.89-.09a4.15 4.15 0 0 0-1.74 1.68 6.32 6.32 0 0 0-5.69 2c-2.88 3.46-1.87 10.36-1.08 14h-.42a2.94 2.94 0 1 0 0 5.87h1v1.67a12.86 12.86 0 0 0 9 12.27v1.38h-3.83a3.87 3.87 0 0 0-3.45 2.08h-.64a10.44 10.44 0 0 0-10.43 10.42v20.08a.5.5 0 0 0 .5.5h43.34a.5.5 0 0 0 .5-.5V60.75a10.44 10.44 0 0 0-10.43-10.42Zm1.1-22.24h1a1.94 1.94 0 1 1 0 3.87h-1ZM56 49.25a2.93 2.93 0 0 1 2.26 1.08H51.8v-1.08Zm-2.48 2.08-1.72 2v-2ZM35.17 32h-1a1.94 1.94 0 1 1 0-3.87h.66c.14.58.26 1 .32 1.22Zm.38-5.32c-.75-3.52-1.62-9.85.91-12.89 1.13-1.36 2.87-1.92 5.17-1.66a.5.5 0 0 0 .54-.35 2.92 2.92 0 0 1 1.42-1.48c1.1-.59 3.24-1 7.12.16a11 11 0 0 0 2.73.51c1.7.07 4.79.53 6.41 2.78 1.24 1.71 1.41 4.19.51 7.36a15.52 15.52 0 0 0-.55 4.38v1.9a1.49 1.49 0 0 1-1.17.38c-.35-.11-.64-.64-.8-1.49-.08-.39-.14-.83-.2-1.29-.43-3.22-1.09-8-8.6-8h-.44a8 8 0 0 1-3.35-.65c-.26-.11-.55-.22-.84-.32a4.66 4.66 0 0 0-5.79 2.47 45.69 45.69 0 0 0-3.07 8.15Zm1.16 11.47a11.54 11.54 0 0 1-.54-3.51v-5.23a.5.5 0 0 0 0-.12c0-2.87 2.09-7.78 3.33-10.45a3.69 3.69 0 0 1 4.56-1.95l.79.3a9.12 9.12 0 0 0 3.76.73c7.09-.18 7.61 3.89 8 7.16.06.48.13.94.2 1.35.24 1.25.74 2 1.48 2.25a2 2 0 0 0 1.48-.16v6.08a11.83 11.83 0 0 1-23.13 3.51Zm14.09 9v7.34l-2.8 3.2-2.8-3.24v-7.32a13.08 13.08 0 0 0 2.81.31 12.24 12.24 0 0 0 2.79-.31Zm-10.45 2.1h3.85v1.08h-6.11a2.91 2.91 0 0 1 2.26-1.08Zm3.85 2.08v2l-1.7-2Zm-7.28 10.11a2.23 2.23 0 1 1-2.23 2.23 2.23 2.23 0 0 1 2.23-2.23Zm32.25 18.89H26.83V60.75a9.44 9.44 0 0 1 9.43-9.42h.26a3.47 3.47 0 0 0-.1.85v8.31a3.22 3.22 0 1 0 1 0v-8.31a2.74 2.74 0 0 1 .13-.85h3.63l3 3.49 3.42 4a.5.5 0 0 0 .4.18.52.52 0 0 0 .38-.17l6.45-7.45h4a2.74 2.74 0 0 1 .13.85v6.51a7.63 7.63 0 0 0-4.34 3.64 19.92 19.92 0 0 0-1.93 4.82 4.56 4.56 0 0 0-.16 2.78 4 4 0 0 0 2.74 2.25.88.88 0 0 0 .86.65.9.9 0 1 0 0-1.8.85.85 0 0 0-.56.2 3.1 3.1 0 0 1-2.1-1.63 3.8 3.8 0 0 1 .18-2.18 19.19 19.19 0 0 1 1.82-4.57 7 7 0 0 1 3.68-3.18h.62a7 7 0 0 1 3.68 3.18 19.19 19.19 0 0 1 1.82 4.57 3.8 3.8 0 0 1 .18 2.18 3.1 3.1 0 0 1-2.1 1.63.85.85 0 0 0-.56-.2.9.9 0 0 0 0 1.8.88.88 0 0 0 .86-.66 4 4 0 0 0 2.74-2.24 4.56 4.56 0 0 0-.16-2.78 19.92 19.92 0 0 0-1.93-4.82 7.63 7.63 0 0 0-4.34-3.64v-6.56a3.47 3.47 0 0 0-.1-.85 9.44 9.44 0 0 1 9.34 9.42Z" fill="#019fbe" class="fill-231f20"></path><path d="M42.47 30a.5.5 0 0 0 .5.5.5.5 0 0 0 .5-.5c0-1.11-1.15-2-2.61-2s-2.61.87-2.61 2a.5.5 0 0 0 .5.5.5.5 0 0 0 .5-.5c0-.52.75-1 1.61-1s1.61.51 1.61 1ZM53 30.53a.5.5 0 0 0 .5-.5c0-.52.76-1 1.62-1s1.6.46 1.6 1a.5.5 0 0 0 .5.5.5.5 0 0 0 .5-.5c0-1.11-1.14-2-2.6-2s-2.62.87-2.62 2a.5.5 0 0 0 .5.5ZM54 37.83a.51.51 0 0 0-.5-.5.5.5 0 0 0-.5.5c0 2.38-1.68 3.59-5 3.59s-5-1.21-5-3.59a.5.5 0 0 0-.5-.5.51.51 0 0 0-.5.5c0 3 2.13 4.59 6 4.59s6-1.63 6-4.59ZM48 36.6a2.16 2.16 0 0 0 2.16-2.16v-2a2.16 2.16 0 0 0-4.32 0v2A2.16 2.16 0 0 0 48 36.6Zm-1.16-4.19a1.16 1.16 0 0 1 2.32 0v2a1.16 1.16 0 0 1-2.32 0ZM36.92 65.38a1.71 1.71 0 1 0-1.71-1.71 1.71 1.71 0 0 0 1.71 1.71Zm0-2.42a.71.71 0 0 1 0 1.42.71.71 0 1 1 0-1.42Z" fill="#019fbe" class="fill-231f20"></path></svg>