<svg data-name="Your Icons" viewBox="0 0 96 96" xmlns="http://www.w3.org/2000/svg"><path d="M73.61 38.73H22.39a2.51 2.51 0 0 0-2.5 2.5v22.3a2.5 2.5 0 0 0 2.5 2.5h51.22a2.5 2.5 0 0 0 2.5-2.5v-22.3a2.51 2.51 0 0 0-2.5-2.5Zm1.5 24.8a1.5 1.5 0 0 1-1.5 1.5H22.39a1.5 1.5 0 0 1-1.5-1.5v-22.3a1.5 1.5 0 0 1 1.5-1.5h51.22a1.5 1.5 0 0 1 1.5 1.5Z" fill="#019fbe" class="fill-231f20"></path><path d="M48 43.12a9.27 9.27 0 1 0 9.27 9.26A9.27 9.27 0 0 0 48 43.12Zm0 17.53a8.27 8.27 0 1 1 8.27-8.27A8.28 8.28 0 0 1 48 60.65Z" fill="#019fbe" class="fill-231f20"></path><path d="M49.81 47.06h-3.62v3.51h-3.51v3.63h3.51v3.5h3.62v-3.5h3.51v-3.63h-3.51Zm2.51 4.51v1.63h-3.51v3.5h-1.62v-3.5h-3.51v-1.63h3.51v-3.51h1.62v3.51Z" fill="#019fbe" class="fill-231f20"></path><path d="M80.67 28.37h-3.08a2 2 0 0 0-2 2v.47H65v-.47a2 2 0 0 0-2-2h-5.3v-4.54a3.5 3.5 0 0 0-3.5-3.5H41.8a3.5 3.5 0 0 0-3.5 3.5v4.54h-5.79a2 2 0 0 0-2 2v.47h-10.6v-.47a2 2 0 0 0-2-2h-3.08a2 2 0 0 0-2 2v37.47a2 2 0 0 0 1.67 2v1.61a2.39 2.39 0 0 0 2.5 2.22h6.52A2.39 2.39 0 0 0 26 71.42v-1.58h6v1.58a2.39 2.39 0 0 0 2.5 2.25h24.96A2.39 2.39 0 0 0 62 71.42v-1.58h6.89v1.58a2.39 2.39 0 0 0 2.5 2.25h6.52a2.39 2.39 0 0 0 2.5-2.25v-1.58h.3a2 2 0 0 0 2-2V30.37a2 2 0 0 0-2.04-2ZM65 31.84h10.6v.46a2 2 0 0 1-2 2H67a2 2 0 0 1-2-2Zm-25.69-8a2.5 2.5 0 0 1 2.5-2.5H54.2a2.5 2.5 0 0 1 2.5 2.5v4.38h-2.5v-2.13a2.26 2.26 0 0 0-2.26-2.26h-7.88a2.26 2.26 0 0 0-2.26 2.26v2.12h-2.5Zm13.9 2.26v2.12H42.8v-2.13a1.25 1.25 0 0 1 1.26-1.26h7.88a1.25 1.25 0 0 1 1.26 1.26Zm-33.3 5.74h10.6v.46a2 2 0 0 1-2 2h-6.6a2 2 0 0 1-2-2ZM18 72.67h-1a1.4 1.4 0 0 1-1.5-1.25v-1.58H18Zm3.51 0H19v-2.83h2.51ZM25 71.42a1.39 1.39 0 0 1-1.5 1.25h-1v-2.83H25Zm35.94 0a1.39 1.39 0 0 1-1.5 1.25h-24.9A1.39 1.39 0 0 1 33 71.42v-1.58h28Zm11.4 1.25h-1a1.4 1.4 0 0 1-1.5-1.25v-1.58h2.51Zm3.51 0h-2.49v-2.83h2.51Zm3.5-1.25a1.39 1.39 0 0 1-1.5 1.25h-1v-2.83h2.5Zm2.3-3.58a1 1 0 0 1-1 1H14.83a1 1 0 0 1-1-1V30.37a1 1 0 0 1 1-1h3.08a1 1 0 0 1 1 1v1.93a3 3 0 0 0 3 3h6.6a3 3 0 0 0 3-3v-1.93a1 1 0 0 1 1-1H63a1 1 0 0 1 1 1v1.93a3 3 0 0 0 3 3h6.6a3 3 0 0 0 3-3v-1.93a1 1 0 0 1 1-1h3.08a1 1 0 0 1 1 1Z" fill="#019fbe" class="fill-231f20"></path></svg>