<svg viewBox="0 0 128 128" xml:space="preserve" xmlns="http://www.w3.org/2000/svg" enable-background="new 0 0 128 128"><path d="M44.8 93.88h-.14C23.1 92.33 5.34 75.67 2.43 54.27 2.14 52.21 2 50.1 2 48v-.33c0-.42.01-.83.02-1.23.02-.55.05-1.07.1-1.6C3.72 20.83 23.88 2 48 2c24.01 0 44.17 18.74 45.88 42.66.04.58-.17 1.14-.58 1.55l-.17.16-.15.14c-.02.02-.04.05-.07.07L46.58 92.91c-.15.14-.23.23-.32.32-.37.42-.91.65-1.46.65zM48 6C25.97 6 7.57 23.19 6.11 45.13c-.04.5-.07.96-.09 1.44-.01.35-.02.72-.02 1.1V48c0 1.92.13 3.84.39 5.73C9.01 72.97 24.77 88 44.03 89.81l45.78-45.78C87.81 22.63 69.62 6 48 6zm45.04 40.45c-.02.02-.03.04-.05.06.01-.02.03-.04.05-.06z" fill="#019fbe" class="fill-000000"></path><path d="M61 125.52c-.99 0-1.85-.73-1.98-1.74-.15-1.09.62-2.1 1.72-2.25a16.7 16.7 0 0 0 9.68-4.79l46.34-46.34c3.18-3.18 4.93-7.41 4.93-11.92s-1.75-8.73-4.93-11.92c-6.4-6.4-16.94-6.55-23.5-.33l-.12.12-.15.14c-.02.02-.04.05-.07.07L46.58 92.91c-.15.14-.23.23-.32.32-6.24 6.57-6.09 17.12.32 23.52 2.64 2.64 5.99 4.29 9.68 4.79 1.09.15 1.86 1.15 1.72 2.25a1.997 1.997 0 0 1-2.25 1.72c-4.57-.61-8.71-2.66-11.98-5.92-8.06-8.06-8.23-20.83-.41-29.08.14-.15.3-.32.46-.47L90.04 43.8c.06-.07.13-.13.19-.19l.17-.16c.01-.01.08-.08.1-.09 8.25-7.83 21.03-7.65 29.08.41 3.94 3.94 6.11 9.17 6.11 14.74s-2.17 10.81-6.11 14.74l-46.34 46.34a20.66 20.66 0 0 1-11.98 5.92c-.09.01-.17.01-.26.01zm32.04-79.07c-.02.02-.03.04-.05.06.01-.02.03-.04.05-.06z" fill="#019fbe" class="fill-000000"></path><path d="M96 96c-.51 0-1.02-.2-1.41-.59l-6-6c-.78-.78-.78-2.05 0-2.83.78-.78 2.05-.78 2.83 0l6 6c.78.78.78 2.05 0 2.83-.4.39-.91.59-1.42.59zM86 86c-.51 0-1.02-.2-1.41-.59l-16-16c-.78-.78-.78-2.05 0-2.83.78-.78 2.05-.78 2.83 0l16 16c.78.78.78 2.05 0 2.83-.4.39-.91.59-1.42.59zM28 55H4.41a2 2 0 0 1-1.98-1.7c-.27-1.81-.42-3.66-.43-5.5v-.13c0-.42.01-.83.02-1.23.02-.55.05-1.07.1-1.6C2.2 43.8 3.07 43 4.11 43H25c1.1 0 2 .9 2 2s-.9 2-2 2H6.01c-.01.22-.01.44-.01.67v.12c.01 1.07.06 2.14.17 3.21H28c1.1 0 2 .9 2 2s-.9 2-2 2zM83.67 55H33c-1.1 0-2-.9-2-2s.9-2 2-2h49.84l4-4H30c-1.1 0-2-.9-2-2s.9-2 2-2h61.67c.81 0 1.54.49 1.85 1.23a2 2 0 0 1-.43 2.18l-.1.1c-.02.02-.04.05-.07.07l-7.83 7.83c-.38.38-.89.59-1.42.59zm9.36-8.55c-.02.02-.03.04-.05.05a.12.12 0 0 0 .05-.05zm.01 0s-.01 0 0 0c-.01 0 0 0 0 0zm0 0zm0 0zM83 67a2.004 2.004 0 0 1-1.41-3.42l14-14c.78-.78 2.05-.78 2.83 0 .78.78.78 2.05 0 2.83l-14 14c-.4.39-.91.59-1.42.59z" fill="#019fbe" class="fill-000000"></path></svg>