<svg viewBox="0 0 64 64" xmlns="http://www.w3.org/2000/svg"><g data-name="Layer 9"><path d="M2 58h60v4H2zM16 38h32v4H16zM18 42v16M22 42v16M42 42v16M46 42v16M48 40h12v18M16 40H4v18M28 58V48h8v10" fill="none" stroke="#019fbe" stroke-linejoin="round" stroke-width="2px" class="stroke-000000"></path><path d="M8 46h6v8H8zM50 46h6v8h-6zM6 40V18h52v22" fill="none" stroke="#019fbe" stroke-linejoin="round" stroke-width="2px" class="stroke-000000"></path><path d="M10 22h4v4h-4zM18 22h4v4h-4zM10 30h4v4h-4zM18 30h4v4h-4z" fill="none" stroke="#019fbe" stroke-linejoin="round" stroke-width="2px" class="stroke-000000"></path><path transform="rotate(180 52 24)" d="M50 22h4v4h-4z" fill="none" stroke="#019fbe" stroke-linejoin="round" stroke-width="2px" class="stroke-000000"></path><path transform="rotate(180 44 24)" d="M42 22h4v4h-4z" fill="none" stroke="#019fbe" stroke-linejoin="round" stroke-width="2px" class="stroke-000000"></path><path transform="rotate(180 52 32)" d="M50 30h4v4h-4z" fill="none" stroke="#019fbe" stroke-linejoin="round" stroke-width="2px" class="stroke-000000"></path><path transform="rotate(180 44 32)" d="M42 30h4v4h-4z" fill="none" stroke="#019fbe" stroke-linejoin="round" stroke-width="2px" class="stroke-000000"></path><path d="M26 38V26h12v12M18 2h28v16H18zM32 5v10M27 10h10M46 8h12v4H46zM56 12v6" fill="none" stroke="#019fbe" stroke-linejoin="round" stroke-width="2px" class="stroke-000000"></path><path transform="rotate(180 12 10)" d="M6 8h12v4H6z" fill="none" stroke="#019fbe" stroke-linejoin="round" stroke-width="2px" class="stroke-000000"></path><path d="M8 12v6" fill="none" stroke="#019fbe" stroke-linejoin="round" stroke-width="2px" class="stroke-000000"></path></g></svg>